<?xml version="1.0" encoding="utf-8"?>
<!-- Generator: Adobe Illustrator 19.2.1, SVG Export Plug-In . SVG Version: 6.00 Build 0)  -->
<svg version="1.1" id="Layer_1" xmlns="http://www.w3.org/2000/svg" xmlns:xlink="http://www.w3.org/1999/xlink" x="0px" y="0px"
	 viewBox="0 0 14400 14400" style="enable-background:new 0 0 14400 14400;" xml:space="preserve">
<style type="text/css">
	.st0{fill:#FFFFFF;}
</style>
<path class="st0" d="M7409,6958.6h51.7l283.1,411.1h1.4v-411.1h46.3v486h-51.8l-283.1-411.1h-1.3v411.1H7409V6958.6z"/>
<path class="st0" d="M7333.5,7444.6h49.7l-190.5-486h-51.7l-196,486h49.7l41.7-106.8h255.8L7333.5,7444.6z M7051.7,7298.3l113-289
	l112.1,289H7051.7z"/>
<g>
	<path class="st0" d="M6709.3,6947.1c-145.3,0-246.6,113.1-246.6,252.7c0,139.5,102.5,252.7,246.6,252.7
		c146.4,0,247.8-113.2,247.8-252.7C6957.1,7060.2,6853.3,6947.1,6709.3,6947.1z M6709.4,7410.3c-120,0-205.4-94.3-205.4-210.5
		c0-116.3,84.4-210.5,205.4-210.5c120,0,206.4,94.3,206.4,210.5C6915.8,7316.1,6831.4,7410.3,6709.4,7410.3z"/>
</g>
<path class="st0" d="M7854.9,6958.6h154.9c146.3,3.4,243.8,116.1,243.8,251c0,125.1-98.5,235-243.8,235h-154.9V6958.6z
	 M7901.2,7402.5h106c131.9,0,202.8-99.9,202.8-195.6c0-101.9-64.7-206.4-202.8-206.4h-106V7402.5z"/>
<path class="st0" d="M8703.2,7444.6h55.4l-407.9-486h-47.3v486h46.2v-106.7h264.2L8703.2,7444.6z M8349.5,7298.3v-269.2h4.5
	l226.7,269.2H8349.5z"/>
<g>
	<path class="st0" d="M5844.3,7474.2c26.2,7.9,54,12.2,82.8,12.2c60,0,115.7-18.5,161.8-50l-244.6-291.5V7474.2z"/>
	<path class="st0" d="M5640.4,7199.7c0,78.1,31.3,149,82,200.7v-401.3C5671.7,7050.8,5640.4,7121.6,5640.4,7199.7z"/>
	<path class="st0" d="M5844.3,6958.7l327.6,390.4c26.6-43.5,42-94.6,42-149.4c0-158.3-128.4-286.7-286.7-286.7
		c-57,0-110.2,16.7-154.9,45.5h72.1V6958.7z"/>
</g>
</svg>
