<?xml version="1.0" encoding="utf-8"?>
<!-- Generator: Adobe Illustrator 19.2.1, SVG Export Plug-In . SVG Version: 6.00 Build 0)  -->
<svg version="1.1" id="Layer_1" xmlns="http://www.w3.org/2000/svg" xmlns:xlink="http://www.w3.org/1999/xlink" x="0px" y="0px"
	 viewBox="0 0 220 55" style="enable-background:new 0 0 220 55;" xml:space="preserve">
<style type="text/css">
	.st0{fill:#FFFFFF;}
</style>
<path class="st0" d="M122.9,12.7h3.3l18.2,26.4h0.1V12.7h3v31.2h-3.3L126,17.5h-0.1v26.4h-3V12.7z"/>
<path class="st0" d="M118.1,43.9h3.2l-12.2-31.2h-3.3L93.2,43.9h3.2l2.7-6.9h16.4L118.1,43.9z M100,34.5l7.2-18.5l7.2,18.5H100z"/>
<g>
	<path class="st0" d="M78.1,12c-9.3,0-15.8,7.3-15.8,16.2c0,8.9,6.6,16.2,15.8,16.2c9.4,0,15.9-7.3,15.9-16.2
		C94,19.3,87.3,12,78.1,12z M78.1,41.7c-7.7,0-13.2-6-13.2-13.5c0-7.5,5.4-13.5,13.2-13.5c7.7,0,13.2,6,13.2,13.5
		C91.3,35.7,85.9,41.7,78.1,41.7z"/>
</g>
<path class="st0" d="M151.5,12.7h9.9c9.4,0.2,15.6,7.4,15.6,16.1c0,8-6.3,15.1-15.6,15.1h-9.9V12.7z M154.5,41.2h6.8
	c8.5,0,13-6.4,13-12.5c0-6.5-4.1-13.2-13-13.2h-6.8V41.2z"/>
<path class="st0" d="M205.9,43.9h3.6l-26.2-31.2h-3v31.2h3v-6.8h16.9L205.9,43.9z M183.3,34.5V17.3h0.3l14.5,17.3H183.3z"/>
<g>
	<path class="st0" d="M22.6,45.8c1.7,0.5,3.5,0.8,5.3,0.8c3.8,0,7.4-1.2,10.4-3.2L22.6,24.7L22.6,45.8L22.6,45.8z"/>
	<path class="st0" d="M9.5,28.2c0,5,2,9.6,5.3,12.9V15.3C11.5,18.6,9.5,23.2,9.5,28.2z"/>
	<path class="st0" d="M22.6,12.7l21,25c1.7-2.8,2.7-6.1,2.7-9.6C46.3,18,38,9.8,27.9,9.8c-3.7,0-7.1,1.1-9.9,2.9L22.6,12.7
		L22.6,12.7L22.6,12.7z"/>
</g>
</svg>
